<svg xmlns="http://www.w3.org/2000/svg" version="1.1" width="600px" height="600px" viewBox="0 0 200 200" style="overflow:hidden!important;"><g id="svga-group-wrapper"><g id="svga-group-backs-single"></g><g id="svga-group-humanwrap-move" transform="matrix(1,0,0,1,0,0)"><g id="svga-group-humanwrap" transform="matrix(1.1500006000000005,0,0,1.1500006000000005,-15.189010722230577,-18.3656930265347)"><g id="svga-group-hair-back-move" transform="matrix(1,0,0,1,0,0)"><g id="svga-group-hair-back" transform="matrix(1.0400004000000003,0,0,1.0002004000000002,-4.024040636732508,-0.024488882446320304)"><path id="SvgjsPath9970" d="m59.8 88.3 9.1 69.3 10.3 1.6 1.8-3.1 1.9 2.9 36-1.4 1-12.2.9 12.2 19-.9 1.6-71.5z" fill="#221b23" stroke-width="none" opacity="1"></path></g></g><g id="svga-group-humanbody-back"><path id="SvgjsPath9781" d="M77.8 105.9s4.8 37.7 10 55.8c0 0-6.4 8.8-14.5 11.9-28.7 11.2-35 11.2-39.6 15.2-2.4 2.1.2 11.1 1.8 17.2 1.3 5 1.7 13.2 1.7 13.2h132.2s1.6-33-.6-39.8-7.1-2.9-21.9-4.5c-14.8-1.6-28.7-10.3-31-13.2l.3-60-38.4 4.2z" fill="#f3d4cf" stroke-width="none" opacity="1"></path></g><g id="svga-group-chinshadow-single"><path id="SvgjsPath9777" d="M96.4 146.7s5.3 3.1 10 2c1.7-.4 5.3-2.2 9.6-4.9l.2-42.2-38.4 4.2s3 23.5 6.8 42.3c.7.3 1.3.5 1.8.6 4.7 1.1 10-2 10-2z" fill="#d4958a" stroke-width="none" opacity="1"></path></g><g id="svga-group-humanbody-front"><path id="SvgjsPath9782" d="M72.1 183.1s14.6-.2 20.4 2.6c5.8 2.9 12.7 2.4 16.1-1s21.6-7 21.6-7-19.7 1.9-25 4.6c-5.3 2.7-22.3-2.8-33.1.8z" fill="#d4958a" stroke-width="none" opacity="1"></path><path id="SvgjsPath9783" d="M74.2 173.2c6.7-1.3 14.7-6.4 14.7-6.4l6.2 5.5c-4.3-7.9-12.7-41.1-12.7-41.1l-.7.7c1.7 10.5 3.9 21.9 6.1 29.7 0 0-6 8.2-13.6 11.6z" fill="#d4958a" stroke-width="none" opacity="1"></path><path id="SvgjsPath9784" d="M170.7 188.5c-.1-2.1-.2-4.1-.4-6.2-.1-1-.3-2.1-.6-3.2-.2-.5-.4-1-.6-1.6-.2-.5-.6-1-1-1.5s-.9-.9-1.5-1.1c-.6-.3-1.1-.4-1.7-.6-1.1-.2-2.2-.2-3.2-.2-2.1 0-4.1.1-6.1.1s-4-.1-6-.2-4-.4-6-.7c-1-.2-2-.4-2.9-.6l-1.5-.4c-.5-.1-1-.3-1.4-.4-3.8-1.1-7.6-2.6-11.2-4.4l-1.3-.7-1.3-.7c-.4-.2-.9-.5-1.3-.8s-.9-.5-1.3-.8-.8-.5-1.3-.8l-1.2-.9-.6-.5-.3-.2-.3-.2c-.2-.2-.4-.3-.5-.5l-.2-.3v-44.6l-.1-15v-.6l-.6.1c-6.4.8-12.9 1.5-19.3 2.3l-19.1 2.3v.5l.1.4.1.9.2 1.8c.1 1.2.3 2.3.4 3.5l.9 7c.6 4.7 1.3 9.4 2.1 14 .8 4.7 1.5 9.3 2.5 14 .9 4.5 1.8 9 3 13.5-1.1 1.4-2.3 2.7-3.6 4-1.3 1.3-2.8 2.6-4.3 3.8-1.5 1.1-3.1 2.2-4.8 3l-1.3.6c-.4.2-.9.3-1.3.5l-2.7 1c-7.2 2.7-14.5 5.3-21.8 7.7l-5.5 1.8c-1.8.6-3.7 1.3-5.5 2.2-.4.2-.9.5-1.3.7-.4.3-.9.5-1.3.9l-.6.5c-.2.2-.5.5-.6.8-.3.5-.4 1.1-.5 1.6-.2 1.1-.1 2.1 0 3.1s.3 2 .4 2.9c.4 1.9.8 3.8 1.3 5.7l.8 2.8c.3.9.5 1.8.7 2.8.4 1.9.7 3.8.9 5.7s.4 3.8.5 5.7v.8h133.4v-.8c.2-4.1.4-8.2.5-12.3s.2-8.2.2-12.3c0-1.8-.1-3.8-.1-5.9zm-67.4 30.3H70.2l-16.5-.1-16-.1c-.1-1.8-.2-3.5-.4-5.3-.2-1.9-.4-3.9-.8-5.8-.2-1-.4-1.9-.7-2.9l-.7-2.8c-.5-1.9-.9-3.7-1.2-5.6-.2-.9-.3-1.9-.4-2.8-.1-.9-.1-1.9 0-2.7.1-.4.2-.8.4-1.1.1-.2.2-.3.3-.4l.5-.4c.3-.3.7-.5 1.1-.8.4-.2.8-.5 1.2-.7 1.7-.8 3.5-1.4 5.3-2l5.5-1.8c7.3-2.4 14.6-5 21.8-7.8l2.7-1c.5-.2.9-.3 1.4-.5l1.4-.6c1.8-.9 3.4-2 5-3.2s3-2.5 4.4-3.9 2.7-2.9 3.8-4.5l.2-.3-.1-.3c-1.3-4.5-2.3-9.1-3.3-13.7s-1.9-9.3-2.7-13.9c-.8-4.6-1.6-9.3-2.4-14l-2.2-13.9 19.3-1.8c6.2-.6 12.3-1.2 18.5-1.8l-.2 14.4-.2 15-.3 30v.4l.2.2.6.7.6.6.3.3.3.2.6.5c.4.3.9.6 1.3.9.4.3.9.6 1.3.9.4.3.9.5 1.3.8s.9.5 1.3.8l1.4.8 1.4.7c.5.2.9.5 1.4.7l1.4.7c1 .4 1.9.8 2.9 1.2s1.9.8 2.9 1.1l1.5.5c.5.2 1 .3 1.5.4.5.1 1 .3 1.5.4l1.5.4c1 .3 2 .4 3 .6 2 .4 4.1.6 6.2.8 2.1.2 4.1.2 6.2.2 2.1 0 4.1-.1 6.1-.1s4 .1 5 1.3c.5.6.9 1.4 1.2 2.3.3.9.4 1.9.6 2.8.3 2 .4 4 .5 6s.1 4.1.2 6.1c.1 7.9-.1 15.8-.4 23.7-10.8.1-21.5.1-32.3.2h-33.1z" fill="#c5796d" stroke-width="none" opacity="1"></path><path id="SvgjsPath9785" d="M150.7 219.2 147 198l-.4 21.2z" fill="#d4958a" stroke-width="none" opacity="1"></path><path id="SvgjsPath9786" d="M47.3 203.5s2.2 11.5 2.9 15.7h3.5l-6.4-15.7z" fill="#d4958a" stroke-width="none" opacity="1"></path></g><g id="svga-group-clothes-single"><path id="SvgjsPath9928" d="M85.9 154.3c-1.3 2.2-6.7 9.9-6.7 9.9l-.4 2.8s-5 3.5-14 7.3c-9.1 3.8-31 11-32.7 12.3s-1.9 8.6-.9 11.8c1 3.2 3.9 10.4 3.9 20.8h135.8s1-13.9 1.1-18.9c.1-5-.1-21.9-2.5-25.1-2.3-3.2-4.4-2.2-11.2-2.2s-17.8-1.9-25.1-3.8c-7.3-1.9-8.2-4.4-8.2-4.4l-.9-2.6-7.3-8s.3 10.1-.4 14-10.6 8-10.7 9.2c-.5 7.1-2 8.2-2 8.2s-.2-6.3-5.3-8c-1.9-.7-5.6-2.1-6.7-3.9-1.2-1.9-3.4-8.6-3.6-10.9-.2-2.4-2.2-8.5-2.2-8.5z" fill="#1d74bf" stroke-width="none" opacity="1"></path><path id="SvgjsPath9929" d="M172.9 195.7c0-3.9-.2-7.9-.5-11.8-.2-2-.4-3.9-.8-5.9-.2-1-.4-2-1.1-3.1-.4-.5-.7-.9-1.1-1.3-.4-.4-.9-.8-1.4-1-1.1-.6-2.3-.6-3.3-.6s-2 0-3 .1c-1.9.1-3.9.1-5.8 0-3.9-.2-7.7-.7-11.6-1.4-3.8-.7-7.7-1.4-11.4-2.4-1.8-.5-3.6-1.1-5.2-2.1-.8-.4-1.5-1.1-1.8-1.6l-.9-2.6-.1-.2-.1-.1-7.3-8-1.7-1.9.1 2.5c.1 3.1.1 6.1 0 9.2-.1 1.5-.1 3.1-.3 4.5-.1 1.2-1.2 2.2-2.3 3.2-1.1.9-2.4 1.8-3.7 2.6-1.3.9-2.6 1.5-3.9 2.6-.2.2-.3.3-.6.7 0 .1-.1.1-.1.2V177.9c0 .4-.1.8-.1 1.1-.1.8-.2 1.5-.3 2.2-.1.7-.3 1.5-.5 2.2 0 .1-.1.1-.1.2-.2-1-.6-1.9-1.1-2.8-.8-1.5-2.1-2.8-3.7-3.4-.8-.3-1.5-.5-2.3-.8l-2.1-.9c-.7-.3-1.3-.8-1.9-1.2-.6-.5-.9-1-1.3-1.8-.7-1.4-1.2-2.9-1.8-4.4-.5-1.5-1-3-1.3-4.6-.1-.7-.2-1.6-.4-2.4-.2-.8-.4-1.6-.6-2.3s-.4-1.5-.7-2.3l-.4-1.1-.2-.6-.1-.3-.1-.1v-.1c0-.1-.1-.1-.1-.1-.2.2-.4.5-.5.7l-.4.6-.8 1.2-1.7 2.4-3.5 4.9v.2l-.4 2.6c-5.9 3.7-12.2 6.5-18.8 8.9-6.6 2.4-13.2 4.6-19.9 7-1.7.6-3.3 1.2-5 1.8-.8.3-1.7.6-2.5 1-.2.1-.4.2-.7.4-.3.2-.5.4-.7.7-.3.5-.5.9-.7 1.4-.5 1.9-.6 3.7-.7 5.5 0 1.8.1 3.6.7 5.5 1.1 3.4 2.2 6.6 2.8 10 .7 3.4 1 6.8 1 10.3v.9h.8c11.3 0 22.6-.2 33.9-.3 11.3-.2 22.6-.2 33.9-.2 11.3 0 22.6.1 33.9.2l33.9.3h.8l.1-.8.9-11.7c.4-4.3.7-8.3.6-12.2zm-58.7-23.4c.6-.5 1.2-1.1 1.8-1.7.3-.3.5-.7.7-1.1.2-.4.4-.9.4-1.3.3-1.6.3-3.1.4-4.7.1-2.3.1-4.5.1-6.8l5.5 6.1.4 1.2.2.7.1.4.1.2c.1.2.1.2.2.3.3.5.7.9 1 1.2.2 1.1.4 2.1.5 3.1.3 2.4.6 4.8 1.1 7.1.4 2.4.8 4.7 1.4 7.1.3 1.2.5 2.4 1 3.6l.3.9c-1.8-1.1-3.5-2.3-5.1-3.6-.3-.2-.5-.4-.8-.7l-.8-.7-1.7-1.5-3.3-2.9c-1.1-1-2.2-1.9-3.3-2.9l-.4-.4c-.1-.1-.2-.2-.5-.4-.5-.4-1-.4-1.4-.5-.7 0-1.3 0-1.9.2h.1c1.3-1 2.6-1.9 3.9-2.9zm-7.9 5.2c0-.1 0 0 0 0zm-.5 3.9c.2-.8.3-1.6.3-2.3.1-.4.1-.8.1-1.2v-.3l.2-.2c.3-.2.6-.4.9-.7.1-.1.3-.1.4-.1.7-.2 1.4-.3 2.1-.5.7-.1 1.4-.1 2-.1.3.1.6.1.7.2l.3.3.4.4c.6.6 1.2 1.3 1.9 1.9-1.7.8-3.3 1.5-5 2.1-.9.4-1.9.7-2.8.9-.6.2-1.2.3-1.8.5.2-.1.3-.5.3-.9zm-26.3-17 3.3-4.9 1.6-2.5.8-1.3.4-.6c.1-.2.2-.3.2-.5v.1l.1.3.2.6.3 1.1c.2.8.4 1.5.6 2.3s.4 1.6.5 2.3c.2.8.2 1.5.3 2.4.3 1.6.7 3.1 1.2 4.7.5 1.5 1 3.1 1.7 4.5.3.7.8 1.6 1.4 2.1.6.6 1.3 1 2.1 1.4.7.4 1.5.7 2.2 1 .7.3 1.6.6 2.2.9 1.9.8 3.1 2.6 3.7 4.5-2.4-.7-4.8-1.2-7.3-1.8-2.3-.5-4.6-.9-7-1.2.3-.6.7-1.3 1.1-1.9.3-.4.5-.9.9-1.1.3-.3.8-.4 1.2-.5 1-.1 2 0 3 .2-1-.4-2-.7-3.1-.8-.5 0-1.2.1-1.7.4-.5.4-.8.8-1.2 1.2-1.3 1.7-2.3 3.5-3.5 5.2l-.9 1.2c-.3.3-.6.7-1 1-.7.6-1.5 1.2-2.4 1.8l-3.3 2.1c.3-1.4.6-2.8.8-4.2.4-2.1.6-4.4.7-6.6.1-2.2.2-4.4.2-6.5 0-1.1 0-2.2-.1-3.3 0-.2 0-.4-.1-.7l.1-.1v-.1l.8-2.7zM53 218.5c-.3-2.9-.8-5.9-1.4-8.8-.3-1.6-.7-3.2-1.1-4.8-.2-.8-.5-1.6-.8-2.4-.3-.8-.8-1.6-1.2-2.3-2-2.7-4.3-5.1-6.8-7.2-1.2-1.1-2.5-2.1-3.9-3-1.4-.9-2.8-1.7-4.4-2.2 2.7 1.7 5 4 7.2 6.3 1.1 1.1 2.2 2.3 3.2 3.5 1 1.2 2.1 2.4 2.9 3.7.4.6.8 1.2 1.1 1.9.3.7.5 1.5.8 2.2.5 1.5 1 3.1 1.4 4.6.8 2.8 1.7 5.6 2.7 8.4-5.6-.1-11.3-.1-16.9-.1 0-3.3-.4-6.6-1-9.8-.3-1.8-.8-3.5-1.2-5.2-.5-1.7-1.1-3.4-1.7-5-.5-1.5-.6-3.2-.7-4.9 0-1.7.1-3.4.5-4.9.1-.4.3-.7.4-1 .1-.1.1-.2.2-.2.1-.1.3-.2.5-.2.8-.4 1.6-.7 2.4-1 1.6-.6 3.3-1.2 4.9-1.9 6.6-2.4 13.2-4.7 19.8-7.3 3.3-1.3 6.5-2.6 9.7-4.2 3-1.5 5.9-3.1 8.7-5v.4c-.1 1.1-.2 2.1-.4 3.2l-.8 6.4-.4 3.2c-.2 1-.4 2.1-.6 3.1-.4 2.1-.9 4.2-1.3 6.4l-.5 2.2 1.9-1.1c1.8-1.1 3.6-2.1 5.3-3.4.8-.6 1.7-1.3 2.5-2.1.4-.4.8-.8 1.1-1.3.3-.5.6-.9.8-1.4.7-1.1 1.2-2.3 1.8-3.4 2.2.9 4.5 1.6 6.8 2.1 2.5.5 5 .9 7.5.8.3.9.5 1.9.5 2.8v.8l-.1.1c-.5.6-1 1.2-1.5 1.9l-.8.9c-.1.2-.2.2-.4.5-.2.2-.3.4-.4.7-.3.9-.4 1.8-.4 2.6v2.4c0 1.6.1 3.2.2 4.8.1 3.2.3 6.4.5 9.6.2 3.1.6 6.1 1.1 9.1-10.8 0-21.5-.1-32.3-.2-4.7-.2-10.1-.2-15.4-.3zm117.7-11.1-.6 11-17.2.2c.8-3.7 1.4-7.4 2-11.2.6-3.8 1.2-7.7 1.8-11.5.3-1.9.7-3.8 1.3-5.5.6-1.8 1.5-3.4 2.5-5.1 1-1.6 2.1-3.2 3.4-4.6 1.2-1.5 2.6-2.9 4.1-4.1-1.7.9-3.3 2.1-4.8 3.5-1.4 1.3-2.8 2.8-4 4.4-1.2 1.6-2.2 3.4-3 5.2-.4.9-.7 1.9-.9 2.9-.2 1-.4 1.9-.6 2.9-.6 3.9-1.1 7.8-1.4 11.6-.3 3.8-.5 7.6-.5 11.4l-15.9.1c-11.3.1-22.6.1-33.9.2h-1.6c.3-3.1.4-6.1.5-9.2 0-3.2 0-6.4-.2-9.6-.1-1.6-.2-3.2-.4-4.8-.1-1.6-.4-3.2-.1-4.5 0-.2.1-.3.1-.4 0-.1.2-.3.3-.4l.7-1c.4-.7.9-1.4 1.3-2.1.1-.2.2-.5.4-.7l.1-.1c.2-.2.2-.2.3-.4.1-.1.1-.2.2-.3l.3-.6c.2-.4.3-.8.4-1.1.1-.3.2-.6.2-.8.7 0 1.4 0 2.1-.1 1-.1 2.1-.4 3-.8s1.9-.8 2.8-1.4c.7-.4 1.4-.9 2-1.5.4.4.8.7 1.1 1.1l3.2 3 1.6 1.5.8.8c.3.3.6.5.9.8 2.4 1.9 4.8 3.5 7.4 5.1l1.8 1.1-.3-2c-.2-1.4-.6-2.6-1.1-3.7-.4-1-.7-2.1-1-3.3-.6-2.3-1.1-4.6-1.7-6.9-.5-2.3-1.1-4.6-1.6-7l-.6-2.4c.3.2.5.4.8.5 1.8 1.1 3.8 1.7 5.7 2.3 3.8 1 7.7 1.8 11.6 2.5 3.9.7 7.8 1.2 11.8 1.4 2 .1 4 .1 6 0 1 0 2-.1 2.9-.1.9 0 1.8.1 2.4.4.3.1.6.4.9.7.3.3.6.7.8.9.4.6.6 1.6.8 2.4.4 1.8.6 3.8.9 5.7.4 3.9.6 7.8.6 11.7 0 4.1-.2 8-.4 11.9zm-67.1-16.3c.8 0 1.4.6 1.4 1.4s-.6 1.4-1.4 1.4-1.4-.6-1.4-1.4.6-1.4 1.4-1.4zm4.4-13.3c.6 0 1.1.5 1.1 1.1s-.5 1.1-1.1 1.1-1.1-.5-1.1-1.1.5-1.1 1.1-1.1zm-3.8 30.6c.7 0 1.3.6 1.3 1.3s-.6 1.3-1.3 1.3-1.3-.6-1.3-1.3.7-1.3 1.3-1.3z" fill="#0056a0" stroke-width="none" opacity="1"></path></g><g id="svga-group-head" transform="matrix(1,0,0,1,0,0)"><g id="svga-group-ears-left-move" transform="matrix(1,0,0,1,-3,0)"><g id="svga-group-ears-left"><path id="SvgjsPath9724" d="M64.35 96.38s-2.97-7.29-5.67-10.81c0 0-1.55-1.23-3.05-2.34a2.359 2.359 0 0 0-3.25.41c-1.71 2.12-4.66 6.02-7.13 10.49-.41.75-.57 1.6-.43 2.44.3 1.82.93 5.1 1.69 6.43 1.08 1.89 5.54 6.62 8.65 8.24 0 0 3.51.54 6.21-1.89 2.71-2.43 2.98-12.97 2.98-12.97z" fill="#f3d4cf" stroke-width="none" opacity="1"></path><path id="SvgjsPath9725" d="M62.48 97.25c-.08-.23-5.87-7.75-8.12-9.17-2.26-1.43-6.99 5.94-7.22 8.42-.23 2.48 2.26 7.14 4.36 8.5 2.11 1.35 6.84 1.88 9.48-1.96 2.63-3.84 1.5-5.79 1.5-5.79z" fill="#e4b3ab" stroke-width="none" opacity="1"></path><path id="SvgjsPath9726" d="M44.91 94.57c-.16.42-.26.86-.28 1.3-.03.45.07.89.13 1.32.14.85.29 1.71.46 2.56.18.85.38 1.7.67 2.53.28.86.84 1.61 1.36 2.29 1.08 1.37 2.28 2.63 3.55 3.83 1.27 1.19 2.61 2.33 4.19 3.17l.06.03.06.01c1.78.19 3.55-.15 5.11-1.01.76-.44 1.48-.98 1.99-1.76.5-.75.76-1.58 1.03-2.4.48-1.65.71-3.33.9-5.01.18-1.68.24-3.36.25-5.06-.35-.98-.73-1.91-1.13-2.86-.39-.94-.82-1.87-1.26-2.79-.45-.92-.89-1.84-1.41-2.73-.51-.89-1.05-1.77-1.67-2.6l-.02-.03-.03-.02-2.04-1.6-1.04-.78a2.659 2.659 0 0 0-2.77-.2c-.43.21-.79.61-1.03.95-.53.69-1.04 1.38-1.54 2.09-1.99 2.83-3.91 5.68-5.54 8.77zm.02 1.31c0-.41.08-.83.23-1.22.73-1.52 1.65-3.01 2.6-4.44.95-1.44 1.97-2.83 3.03-4.18a79 79 0 0 1 1.62-2.01c.49-.68 1.21-1.03 1.98-.97.38.03.74.17 1.04.39l1.01.79 2.03 1.53c1.2 1.59 2.19 3.36 3.15 5.14.48.89.93 1.81 1.39 2.72.45.91.89 1.84 1.32 2.75-.11 1.66-.32 3.35-.56 5-.25 1.66-.57 3.31-1.07 4.89-.28.77-.56 1.56-1.01 2.21-.43.62-1.1 1.11-1.8 1.5-1.38.76-3.05 1.06-4.59.9-1.43-.8-2.75-1.87-4-3a38.627 38.627 0 0 1-3.55-3.69c-.54-.67-1.05-1.31-1.33-2.1-.3-.78-.54-1.61-.75-2.44-.21-.83-.39-1.67-.56-2.52-.09-.43-.19-.84-.18-1.25z" fill="#e4b3ab" stroke-width="none" opacity="1"></path><path id="SvgjsPath9727" d="M48.9 96.37c.25-.83.64-1.56 1.05-2.28.41-.72.88-1.39 1.37-2.05.49-.66 1.01-1.29 1.62-1.87.15-.14.31-.28.52-.38.1-.05.23-.1.39-.04.14.08.17.17.26.25.22.35.43.71.61 1.08.74 1.46 1.45 2.93 2.05 4.46.3.76.56 1.54.77 2.34.11.4.19.8.27 1.22.05.41.14.87.03 1.32-.19.88-.7 1.58-1.21 2.22-.53.64-1.13 1.21-1.77 1.71l-.05-.05c.55-.6 1.07-1.23 1.52-1.88.45-.65.84-1.37.98-2.1.11-.69-.16-1.5-.37-2.26-.23-.77-.47-1.54-.73-2.31-.5-1.54-1.01-3.09-1.7-4.55-.18-.36-.36-.73-.58-1.05-.06-.05-.13-.16-.17-.17-.03-.02-.12 0-.19.04-.16.08-.31.22-.45.35-.57.55-1.02 1.24-1.47 1.91-.84 1.37-1.65 2.81-2.09 4.29-.05.18-.09.37-.1.54a.96.96 0 0 0 0 .24c.01.08.03.19.04.28.07.38.17.76.29 1.13.25.74.58 1.47.97 2.14.1.17.2.34.31.5.05.08.11.15.16.23.05.07.14.16.11.13-.03.01.1.01.25-.06.15-.08.3-.17.45-.28.61-.46 1.17-1.05 1.64-1.67.06-.08.12-.16.17-.23l.07-.11c.01-.03.02-.05.03-.08.03-.13.03-.32 0-.51-.05-.38-.16-.76-.29-1.14-.26-.76-.56-1.52-.89-2.26l.06-.03c.44.69.83 1.41 1.17 2.16.16.38.32.77.41 1.19.05.21.08.44.04.7l-.06.21c-.03.05-.05.1-.08.15-.05.1-.11.18-.17.27-.48.69-1.01 1.33-1.67 1.89-.17.14-.35.27-.57.38-.22.09-.52.24-.92.05-.21-.14-.24-.22-.32-.3-.07-.09-.14-.17-.2-.26-.13-.18-.24-.35-.35-.54-.42-.73-.77-1.49-1.02-2.3-.12-.4-.22-.82-.28-1.24-.01-.11-.03-.21-.04-.33-.01-.13-.01-.25.01-.37.01-.26.06-.47.12-.68z" fill="#c5796d" stroke-width="none" opacity="1"></path></g></g><g id="svga-group-ears-right-move" transform="matrix(1,0,0,1,3,0)"><g id="svga-group-ears-right"><path id="SvgjsPath9728" d="M135.65 96.38s2.97-7.29 5.67-10.81c0 0 1.55-1.23 3.05-2.34 1.02-.76 2.45-.58 3.25.41 1.71 2.12 4.66 6.02 7.13 10.49.41.75.57 1.6.43 2.44-.3 1.82-.93 5.1-1.69 6.43-1.08 1.89-5.54 6.62-8.65 8.24 0 0-3.51.54-6.21-1.89-2.71-2.43-2.98-12.97-2.98-12.97z" fill="#f3d4cf" stroke-width="none" opacity="1"></path><path id="SvgjsPath9729" d="M137.52 97.25c.08-.23 5.87-7.75 8.12-9.17s6.99 5.94 7.22 8.42c.23 2.48-2.26 7.14-4.36 8.5-2.11 1.35-6.84 1.88-9.48-1.96-2.63-3.84-1.5-5.79-1.5-5.79z" fill="#e4b3ab" stroke-width="none" opacity="1"></path><path id="SvgjsPath9730" d="M149.55 85.79c-.5-.7-1.02-1.4-1.54-2.09-.24-.34-.6-.74-1.03-.95-.43-.22-.92-.32-1.41-.29-.49.03-.96.21-1.36.49l-1.04.78-2.04 1.6-.03.02-.02.03c-.62.83-1.16 1.71-1.67 2.6-.52.89-.96 1.81-1.41 2.73-.44.92-.87 1.85-1.26 2.79-.39.95-.78 1.88-1.13 2.86.01 1.7.07 3.38.25 5.06.18 1.68.41 3.36.9 5.01.27.81.53 1.64 1.03 2.4.52.78 1.23 1.32 1.99 1.76 1.56.86 3.33 1.19 5.11 1.01l.06-.01.06-.03c1.58-.85 2.92-1.99 4.19-3.17 1.27-1.19 2.47-2.45 3.55-3.83.52-.68 1.08-1.43 1.36-2.29.3-.83.49-1.68.67-2.53.18-.85.33-1.7.46-2.56.06-.42.15-.86.13-1.32-.02-.45-.12-.89-.28-1.3-1.63-3.08-3.55-5.93-5.54-8.77zm5.35 11.34c-.17.84-.35 1.69-.56 2.52-.21.83-.45 1.66-.75 2.44-.28.79-.79 1.43-1.33 2.1a35.347 35.347 0 0 1-3.55 3.69c-1.25 1.13-2.57 2.2-4 3-1.54.16-3.21-.14-4.59-.9-.7-.39-1.37-.87-1.8-1.5-.46-.64-.74-1.43-1.01-2.21-.5-1.58-.82-3.23-1.07-4.89-.24-1.66-.45-3.34-.56-5 .43-.91.87-1.84 1.32-2.75.46-.91.9-1.82 1.39-2.72.96-1.77 1.94-3.55 3.15-5.14l2.03-1.53 1.01-.79c.3-.22.66-.36 1.04-.39.77-.06 1.49.29 1.98.97a79 79 0 0 1 1.62 2.01c1.07 1.35 2.09 2.74 3.03 4.18.94 1.43 1.87 2.92 2.6 4.44.15.39.22.81.23 1.22 0 .41-.1.82-.18 1.25z" fill="#e4b3ab" stroke-width="none" opacity="1"></path><path id="SvgjsPath9731" d="M151.1 96.37c-.25-.83-.64-1.56-1.05-2.28-.41-.72-.88-1.39-1.37-2.05-.49-.66-1.01-1.29-1.62-1.87-.15-.14-.31-.28-.52-.38-.1-.05-.23-.1-.39-.04-.14.08-.17.17-.26.25-.22.35-.43.71-.61 1.08-.74 1.46-1.45 2.93-2.05 4.46-.3.76-.56 1.54-.77 2.34-.11.4-.19.8-.27 1.22-.05.41-.14.87-.03 1.32.19.88.7 1.58 1.21 2.22.53.64 1.13 1.21 1.77 1.71l.05-.05c-.55-.6-1.07-1.23-1.52-1.88-.45-.65-.84-1.37-.98-2.1-.11-.69.16-1.5.37-2.26.23-.77.47-1.54.73-2.31.5-1.54 1.01-3.09 1.7-4.55.18-.36.36-.73.58-1.05.06-.05.13-.16.17-.17.03-.02.12 0 .19.04.16.08.31.22.45.35.57.55 1.02 1.24 1.47 1.91.84 1.37 1.65 2.81 2.09 4.29.05.18.09.37.1.54.01.09.01.17 0 .24-.01.08-.03.19-.04.28-.07.38-.17.76-.29 1.13-.25.74-.58 1.47-.97 2.14-.1.17-.2.34-.31.5-.05.08-.11.15-.16.23-.05.07-.14.16-.11.13.03.01-.1.01-.25-.06-.15-.08-.3-.17-.45-.28a8.654 8.654 0 0 1-1.64-1.67c-.06-.08-.12-.16-.17-.23l-.07-.11c-.01-.03-.02-.05-.03-.08-.03-.13-.03-.32 0-.51.05-.38.16-.76.29-1.14.26-.76.56-1.52.89-2.26l-.06-.03c-.44.69-.83 1.41-1.17 2.16-.16.38-.32.77-.41 1.19-.05.21-.08.44-.04.7l.06.21c.03.05.05.1.08.15.05.1.11.18.17.27.48.69 1.01 1.33 1.67 1.89.17.14.35.27.57.38.22.09.52.24.92.05.21-.14.24-.22.32-.3.07-.09.14-.17.2-.26.13-.18.24-.35.35-.54.42-.73.77-1.49 1.02-2.3.12-.4.22-.82.28-1.24.01-.11.03-.21.04-.33.01-.13.01-.25-.01-.37a2.75 2.75 0 0 0-.12-.68z" fill="#c5796d" stroke-width="none" opacity="1"></path></g></g><g id="svga-group-faceshape-wrap" transform="matrix(1.0400004000000003,0,0,1.0002004000000002,-4.004039978964258,-0.017348815997337397)"><g id="svga-group-faceshape-single"><path id="SvgjsPath9762" d="M135.9 49.8c-6.7-7.4-11.3-13.2-28.8-17.3-1.8-.4-12.3-.4-14.1 0-17.5 4.1-22.1 9.9-28.8 17.3-7.1 7.8-9.5 29-9.5 29 .4 19.4 4.6 39 4.6 39 8.2 10.7 26.2 21.9 30.8 22.9 4.7 1.1 10-2 10-2s5.3 3.1 10 2 22.6-12.2 30.8-22.9c0 0 4.2-19.5 4.6-39-.1 0-2.5-21.2-9.6-29z" fill="#f3d4cf" stroke-width="none" opacity="1"></path><path id="SvgjsPath9763" d="M110.02 140.74c4.97-1.12 22.58-12.24 30.78-22.94 0 0 4.2-19.5 4.6-39 0 0-2.4-21.2-9.5-29-6.7-7.4-11.3-13.2-28.8-17.3-1.8-.4-12.3-.4-14.1 0-17.5 4.1-22.1 9.9-28.8 17.3-7.1 7.8-9.5 29-9.5 29 .4 19.4 4.6 39 4.6 39 8.2 10.7 26.2 21.9 30.8 22.9 4.7 1.1 10-2 10-2s5.32 3.04 9.92 2.04zm-9.12-3.44-.8-.4-.8.4-1.2.6c-.4.2-.9.4-1.3.5-.9.3-4.5.9-5.4.8-.2 0-3.4-1.1-3.8-1.3 0 0-3.2-1.5-4-2-.9-.5-1.7-1-2.6-1.5s-1.7-1.1-2.6-1.6c-3.4-2.2-6.7-4.6-9.8-7.1-3.1-2.5-6-5.3-8.5-8.3-.7-3.1-1.3-6.3-1.8-9.4-.6-3.2-1-6.5-1.4-9.7-.2-1.6-.4-3.2-.6-4.9-.3-.8-.3-1.6-.4-2.4s-.1-1.6-.2-2.4c-.3-3.2-.4-6.5-.4-9.7.3-2.3.8-4.6 1.2-6.9.5-2.3 1.1-4.6 1.7-6.8.7-2.2 1.4-4.5 2.3-6.6.4-1.1.9-2.1 1.5-3.1.5-1 5.5-7.2 6.3-8.1 1.6-1.7 3.3-3.3 5.1-4.7 3.5-2.8 7.7-4.9 12-6.5 1.1-.4 2.2-.8 3.3-1.1.6-.2 3.4-1 3.4-1s3.09-.73 6.7-.8c2.3-.1 4.7-.1 7-.1.1 0 1.3.1 1.6.2l1.7.4 1.8.4s6.2 1.7 8.4 2.7c.3.1 1.6.7 1.6.7.5.3 3.61 2.01 4.11 2.31 2 1.3 4.29 3.09 5.89 4.79 1.7 1.7 3.3 3.4 4.9 5.2 1.7 1.9 2.9 4.2 3.9 6.6 1 2.4 1.7 4.8 2.4 7.3s1.1 5 1.6 7.5c.4 2.5.7 5 1 7.5-.2 3.2-.5 6.5-.8 9.7-.4 3.2-.8 6.5-1.3 9.7-.2 1.6-1.1 7.2-1.1 7.2l-.8 4.8s-1 5.3-1.3 6.8c-2.4 3-5.2 5.7-8.2 8.2-3 2.6-6.3 5-9.6 7.3-.4.3-2.6 1.6-2.6 1.6-.8.5-1.7 1.1-2.6 1.6s-5.9 3.1-5.9 3.1c-.2.1-1.6.5-1.8.5-.8.1-1.7.1-2.6-.1-.9-.2-5-1.8-5.2-1.9z" fill="#c5796d" stroke-width="none" opacity="1"></path></g></g><g id="svga-group-mouth-single-move" transform="matrix(1,0,0,1,0,0)"><g id="svga-group-mouth-single" transform="matrix(0.9499998000000001,0,0,0.9499998000000001,5.0392699586349465,6.3192753838119415)"><path id="SvgjsPath9713" d="M85.82 119.5s7.36 10.74 14.27 14.57c0 0 8.56-3.83 15.93-14.42 0 0-8.34.75-13-.08 0 0-1.88 1.73-3 2.7 0 0-1.88-1.35-2.78-2.63 0 .01-8.87.16-11.42-.14z" fill="#da7c87" stroke-width="none" opacity="1"></path><path id="SvgjsPath9714" d="M85.84 119.51c.5.64 1.03 1.35 1.56 2.01.53.67 1.07 1.33 1.62 1.99 1.09 1.31 2.22 2.6 3.39 3.84 1.18 1.24 2.38 2.44 3.67 3.55 1.28 1.12 2.64 2.15 4.09 3.02l-.16-.01c1.62-.75 3.16-1.71 4.64-2.74 1.46-1.05 2.88-2.17 4.2-3.41 1.31-1.24 2.58-2.53 3.73-3.92.6-.67 1.13-1.4 1.69-2.11.55-.72 1.05-1.46 1.58-2.19l.18.3c-2.17.21-4.34.33-6.52.36-2.18.03-4.36-.01-6.54-.37l.22-.06-3.02 2.7-.15.13-.16-.12c-.53-.39-1.02-.81-1.49-1.25-.47-.45-.93-.92-1.31-1.46l.17.09c-1.91.01-3.81 0-5.72-.03-.95-.02-1.91-.03-2.86-.08-.92-.06-1.91-.1-2.81-.24zm-.04-.02c1 .05 1.91.07 2.87.07l2.85-.01c1.9-.02 3.81-.05 5.71-.11h.1l.07.09c.74.98 1.75 1.8 2.76 2.55l-.31.01 2.99-2.71.09-.08.12.02c1.05.18 2.13.26 3.21.32s2.16.07 3.24.07 2.16-.03 3.25-.08c1.08-.05 2.17-.1 3.24-.18l.43-.03-.25.33c-.55.72-1.07 1.46-1.64 2.17-.58.7-1.13 1.42-1.75 2.08l-.91 1.01-.95.97c-.31.33-.63.65-.96.96-.33.31-.65.63-.99.93-1.34 1.21-2.73 2.38-4.2 3.45-1.46 1.08-2.97 2.08-4.61 2.91l-.08.04-.08-.05c-1.52-.83-2.9-1.89-4.21-3-1.31-1.12-2.5-2.36-3.67-3.62-1.17-1.25-2.26-2.59-3.32-3.93a44.11 44.11 0 0 1-1.54-2.06c-.5-.69-.99-1.35-1.46-2.12z" fill="#d26d79" stroke-width="none" opacity="1"></path><path id="SvgjsPath9715" d="M83.63 118.5c1.37.55 2.72 1.14 4.08 1.7l4.06 1.72c1.36.57 2.71 1.15 4.06 1.7 1.36.53 2.73 1.11 4.08 1.5l-.27.01 4.61-1.53 4.61-1.54c1.53-.52 3.07-1.05 4.59-1.6s3.05-1.09 4.49-1.85c-.65.49-1.37.88-2.1 1.26-.73.37-1.46.73-2.2 1.07a93.22 93.22 0 0 1-4.51 1.88c-1.52.59-3.04 1.15-4.57 1.69-1.54.53-3.07 1.07-4.62 1.56l-.15.05-.13-.04c-1.48-.44-2.82-1.01-4.18-1.6-1.35-.59-2.69-1.22-4.02-1.86-1.33-.64-2.64-1.31-3.95-1.99-1.29-.72-2.6-1.4-3.88-2.13z" fill="#cb5f6c" stroke-width="none" opacity="1"></path></g></g><g id="svga-group-eyes-left-move" transform="matrix(1,0,0,1,0,0)"><g id="svga-group-eyes-left"><g id="svga-group-eyesback-left"><path id="SvgjsPath9853" d="M80.2 77.2c7.5 0 13.5 5.8 13.5 13s-6 13-13.5 13-13.5-5.8-13.5-13 6-13 13.5-13z" fill="#ffffff" stroke-width="none" opacity="1"></path></g><g id="svga-group-eyesiriswrapper-left" transform="matrix(1,0,0,1,0,0)"><g id="svga-group-eyesiriscontrol-left" transform="matrix(1,0,0,1,0,0)"><g id="svga-group-eyesiris-left"><path id="SvgjsPath9801" d="M80.2 84.9c2.9 0 5.3 2.4 5.3 5.3s-2.4 5.3-5.3 5.3-5.3-2.4-5.3-5.3 2.4-5.3 5.3-5.3z" fill="#3c0e0a" stroke-width="none" opacity="1"></path><path id="SvgjsPath9802" d="M80.2 95.8c-3.1 0-5.6-2.5-5.6-5.6s2.5-5.6 5.6-5.6 5.6 2.5 5.6 5.6c0 3.1-2.5 5.6-5.6 5.6zm0-10.6c-2.8 0-5.1 2.3-5.1 5.1s2.3 5.1 5.1 5.1 5.1-2.3 5.1-5.1c-.1-2.9-2.3-5.1-5.1-5.1z" fill="#1d0200" stroke-width="none" opacity="1"></path><path id="SvgjsPath9803" d="M85.3 90.2c-.7 0-1.3-.1-2 0 0-.3 0-.6-.1-.8.8-.1 1.5-.3 2.2-.6.2-.1.1-.3-.1-.3-.7.2-1.5.4-2.2.7 0-.1-.1-.2-.1-.3.3-.1.6-.3.9-.4.4-.2.8-.3 1.1-.4.1-.1.1-.3-.1-.2-.7.1-1.5.4-2.1.9 0-.1-.1-.1-.1-.2.2-.2.5-.3.7-.5.3-.3.7-.5 1-.8.1-.1 0-.3-.2-.2-.3.3-.7.6-1 .8-.2.2-.4.3-.7.5l-.3-.3c.5-.6.9-1.3 1.3-1.9.1-.1-.1-.2-.2-.1-.5.6-1 1.2-1.4 1.9-.1-.1-.2-.1-.3-.2.2-.8.3-1.6.3-2.3 0-.2-.3-.2-.3 0-.1.6-.2 1.1-.3 1.7 0 .2-.1.3-.1.5-.2-.1-.4-.1-.6-.1 0-.8-.1-1.5-.3-2.2 0-.1-.1 0-.1 0-.1.7-.1 1.4-.1 2.2h-.4c0-.2-.1-.4-.1-.6-.1-.5-.1-1-.2-1.4 0-.1-.2-.1-.2 0-.1.6 0 1.4.2 2.1-.1 0-.2 0-.2.1-.2-.7-.4-1.5-.7-2.1 0-.1-.2-.1-.2.1.1.7.3 1.5.6 2.2 0 0-.1 0-.1.1-.3-.7-.9-1.3-1.3-1.9-.1-.1-.2 0-.1.1.4.7.7 1.4 1.2 2-.1.1-.2.1-.2.2-.1-.1-.2-.3-.3-.4-.3-.4-.7-.9-1.1-1.2-.1-.1-.2 0-.2.1.2.4.6.8.9 1.2.1.2.3.4.4.5l-.4.4c-.6-.5-1.2-.9-1.8-1.2-.1 0-.1.1-.1.1.5.5 1.1 1 1.7 1.4-.1.2-.2.3-.3.5-.1 0-.2-.1-.3-.1-.6-.2-1.2-.5-1.8-.7-.2-.1-.2.2-.1.2.5.3 1.1.5 1.6.7.2.1.3.2.5.2 0 .1 0 .2-.1.3-.2 0-.3-.1-.5-.1-.5-.1-1.1-.2-1.7-.1-.1 0-.1.2 0 .2.6.2 1.4.3 2.1.4v.5c-.3.1-.6.2-.9.4-.4.2-.8.2-1.2.5-.1.1-.1.3.1.3.5 0 .9-.2 1.4-.4.2-.1.5-.2.7-.3 0 .2.1.3.1.5-.1.1-.2.1-.3.2-.5.3-1 .6-1.5 1-.1.1 0 .3.2.2.6-.3 1.1-.7 1.6-1 .1 0 .1-.1.2-.1.1.1.2.3.3.4-.6.5-1 1.1-1.5 1.6-.1.1 0 .2.1.1.5-.4 1.1-.9 1.6-1.4l.3.3c-.2.2-.3.4-.4.6-.3.4-.7.9-.9 1.3-.1.1.1.2.2.1.3-.4.7-.8 1-1.2.2-.2.3-.4.5-.6.1 0 .1.1.2.1-.1.2-.2.3-.2.4-.2.5-.5.9-.7 1.4 0-.8.2-.7.3-.8.3-.4.5-1 .8-1.5.1-.1.1-.3.2-.4h.1c-.3.7-.5 1.4-.6 2.2 0 .1.2.1.2 0 .2-.7.5-1.4.7-2.1.1 0 .2 0 .3.1-.2.7-.2 1.6-.3 2.3 0 .2.3.2.3 0 0-.8.2-1.5.2-2.3h.2c-.1.7-.1 1.5 0 2.2 0 .2.3.2.3 0-.1-.7 0-1.5-.1-2.2.2 0 .4-.1.7-.2.1.3.3.7.4 1 .2.3.3.8.6 1 .1 0 .1 0 .1-.1 0-.3-.2-.7-.4-1-.2-.3-.3-.7-.5-1 .1 0 .1-.1.2-.1.1.3.3.6.5.9s.3.8.6 1c.1.1.2 0 .2-.1-.1-.4-.4-.8-.6-1.1-.2-.3-.3-.6-.5-.8.1-.1.2-.1.3-.2.4.6.8 1.2 1.3 1.7.2.2.4-.1.2-.2-.5-.5-.9-1.1-1.4-1.6.2-.2.4-.4.5-.6.6.4 1.2.9 1.8 1.3.1.1.3-.1.2-.2-.6-.5-1.2-.9-1.8-1.2 0-.1.1-.1.1-.2.6.4 1.3.7 1.9.9.2.1.2-.2.1-.2-.6-.3-1.3-.7-2-.9.1-.2.2-.5.2-.8.7.1 1.4.1 2 .1.5 0 .5-.5.2-.5z" fill="#1d0200" stroke-width="none" opacity="1"></path><path id="SvgjsPath9804" d="M80.2 87.3c1.6 0 2.9 1.3 2.9 2.9s-1.3 2.9-2.9 2.9-2.9-1.3-2.9-2.9 1.3-2.9 2.9-2.9z" fill="#000000" stroke-width="none" opacity="1"></path><path id="SvgjsPath9805" d="M78.6 87.7c.6 0 1.1.5 1.1 1.1s-.5 1.2-1.1 1.2-1.1-.5-1.1-1.1.5-1.2 1.1-1.2zm3.5 4.1c.3 0 .6.3.6.6s-.2.6-.6.6-.6-.3-.6-.6.3-.6.6-.6z" fill="#ffffff" stroke-width="none" opacity="1"></path></g></g></g><g id="svga-group-eyesfront-left"><path id="SvgjsPath9861" d="M80.2 76.7c-7.8 0-14.1 6.1-14.1 13.6s6.3 13.6 14.1 13.6 14.1-6.1 14.1-13.6S88 76.7 80.2 76.7zm-4 19.2c-4.4-1.5-5.8-6.1-6.6-9.2-.8-3.2 12.5-3.2 16-.4s4.8 6.7 5 8.7c0 0-10 2.5-14.4.9z" fill="#f3d4cf" stroke-width="none" opacity="1"></path><path id="SvgjsPath9862" d="M90.7 95v-.2c0-.5-.1-1-.3-1.4-.1-.3-.2-.6-.2-.9-.5-1.8-1.3-4.1-2.7-5.6-1.1-1.2-3.7-4-8.2-4s-7.9 1.6-8.4 1.8c-.9.4-2.5 2.3-2.5 2.3s.4-.1 1.1-.3c0 .1 0 .2.1.3.1.3.2.6.2.8.2.5.3 1.1.5 1.6.4 1.1.9 2.1 1.5 3.1.6.9 1.4 1.8 2.3 2.5s2 1.2 3.1 1.4c2.3.4 4.6.2 6.8 0 2.2-.3 4.4-.7 6.7-1.4-.1 0-.1 0 0 0 0-.1 0 0 0 0zm-.1 0c-2.2.4-4.4.8-6.7 1-1.1.1-2.2.2-3.3.2-1.1 0-2.2 0-3.3-.2-2.2-.4-4.1-1.8-5.3-3.7-.6-.9-1.1-2-1.4-3-.2-.5-.3-1.1-.5-1.6-.1-.3-.1-.5-.2-.8 0-.1-.1-.2-.1-.3 2.2-.6 6.6-1.8 9.6-1.8 4.1.1 7.2 3.3 8.4 4.6 1.1 1.1 2.4 4.4 2.8 5.3v.3z" fill="#0d0706" stroke-width="none" opacity="1"></path></g></g></g><g id="svga-group-eyes-right-move" transform="matrix(1,0,0,1,0,0)"><g id="svga-group-eyes-right"><g id="svga-group-eyesback-right"><path id="SvgjsPath9854" d="M119.8 77.2c7.5 0 13.5 5.8 13.5 13s-6 13-13.5 13-13.5-5.8-13.5-13 6-13 13.5-13z" fill="#ffffff" stroke-width="none" opacity="1"></path></g><g id="svga-group-eyesiriswrapper-right" transform="matrix(1,0,0,1,0,0)"><g id="svga-group-eyesiriscontrol-right" transform="matrix(1,0,0,1,0,0)"><g id="svga-group-eyesiris-right"><path id="SvgjsPath9806" d="M119.8 85.5c2.6 0 4.7 2.1 4.7 4.7s-2.1 4.7-4.7 4.7-4.7-2.1-4.7-4.7 2.1-4.7 4.7-4.7z" fill="#3c0e0a" stroke-width="none" opacity="1"></path><path id="SvgjsPath9807" d="M119.8 95.1c-2.7 0-4.9-2.2-4.9-4.9s2.2-4.9 4.9-4.9 4.9 2.2 4.9 4.9-2.2 4.9-4.9 4.9zm0-9.3c-2.4 0-4.4 2-4.4 4.4s2 4.4 4.4 4.4 4.4-2 4.4-4.4c0-2.4-2-4.4-4.4-4.4z" fill="#1d0200" stroke-width="none" opacity="1"></path><path id="SvgjsPath9808" d="M124.2 90.2c-.6 0-1.2-.1-1.8 0 0-.2 0-.5-.1-.7.7-.1 1.3-.3 2-.5.2-.1.1-.3-.1-.3-.7.1-1.3.3-2 .6 0-.1-.1-.2-.1-.3.3-.1.5-.2.8-.3.3-.1.7-.2 1-.4.1-.1.1-.2-.1-.2-.6.1-1.3.4-1.8.8 0-.1-.1-.1-.1-.2.2-.1.4-.3.6-.4.3-.2.6-.4.9-.7.1-.1 0-.3-.2-.2-.3.2-.6.5-.9.7-.2.1-.4.3-.6.4l-.3-.3c.4-.5.8-1.1 1.1-1.7 0-.1-.1-.2-.1-.1-.4.5-.9 1.1-1.2 1.6-.1-.1-.2-.1-.3-.2.2-.7.2-1.4.2-2 0-.1-.2-.2-.3 0-.1.5-.1 1-.2 1.5 0 .1-.1.3-.1.4-.2-.1-.3-.1-.5-.1 0-.7-.1-1.3-.2-1.9 0-.1-.1 0-.1 0-.1.6-.1 1.3-.1 1.9h-.4c0-.2-.1-.3-.1-.5-.1-.4-.1-.8-.2-1.3 0-.1-.2-.1-.2 0-.1.5 0 1.2.2 1.8-.1 0-.1 0-.2.1-.2-.6-.4-1.3-.6-1.9 0-.1-.2-.1-.2 0 .1.6.3 1.3.5 1.9h-.1c-.3-.6-.8-1.2-1.2-1.7-.1-.1-.2 0-.1.1.3.6.7 1.2 1.1 1.7-.1 0-.2.1-.2.1-.1-.1-.2-.2-.3-.4-.3-.4-.6-.8-1-1.1-.1-.1-.2 0-.1.1.2.4.5.7.8 1.1.1.2.2.3.4.5l-.3.3c-.5-.4-1.1-.8-1.6-1.1-.1 0-.1 0-.1.1l1.5 1.2c-.1.1-.2.3-.2.4-.1 0-.2-.1-.3-.1-.5-.2-1-.4-1.6-.6-.1 0-.2.2-.1.2.4.2.9.4 1.4.6.1.1.3.1.4.2 0 .1 0 .2-.1.2-.2 0-.3 0-.4-.1-.5-.1-1-.2-1.4-.1-.1 0-.1.1 0 .2.5.2 1.2.3 1.9.3v.4c-.3.1-.5.2-.8.3-.3.1-.7.2-1 .4-.1.1-.1.2.1.2.4 0 .8-.2 1.2-.4l.6-.3c0 .1.1.3.1.4-.1.1-.2.1-.3.2-.4.3-.9.6-1.3.9-.1.1 0 .2.1.2.5-.2.9-.6 1.4-.9.1 0 .1-.1.2-.1.1.1.1.2.2.3-.5.4-.9.9-1.3 1.4-.1.1 0 .2.1.1.5-.4 1-.8 1.4-1.3l.3.3c-.1.2-.3.3-.4.5-.3.4-.6.8-.8 1.2-.1.1.1.2.2.1.3-.3.6-.7.9-1.1.1-.2.3-.3.4-.5.1 0 .1.1.1.1-.1.1-.1.3-.2.4-.2.4-.4.8-.6 1.3 0 .1.1.2.2.1.3-.4.5-.8.7-1.3.1-.1.1-.2.2-.3h.1c-.3.6-.5 1.3-.5 1.9 0 .1.1.1.2 0 .2-.6.4-1.2.7-1.8h.3c-.2.6-.2 1.4-.2 2 0 .2.3.2.3 0 0-.7.2-1.3.2-2h.2c-.1.6-.1 1.3 0 1.9 0 .2.3.2.3 0-.1-.6 0-1.3-.1-1.9.2 0 .4-.1.6-.1.1.3.2.6.4.9.1.3.2.7.5.9.1 0 .1 0 .1-.1 0-.3-.2-.6-.3-.9-.1-.3-.3-.6-.4-.9.1 0 .1-.1.2-.1.1.3.3.5.4.8.2.3.3.7.6.9.1.1.2 0 .2-.1-.1-.3-.3-.7-.5-.9-.2-.2-.3-.5-.5-.7.1-.1.2-.1.3-.2.3.6.7 1.1 1.1 1.5.1.1.3-.1.2-.2-.4-.5-.8-.9-1.2-1.4.2-.2.3-.3.4-.5.5.4 1 .8 1.6 1.1.1.1.2-.1.2-.2-.5-.4-1-.8-1.6-1.1 0-.1.1-.1.1-.2.5.3 1.2.6 1.7.8.1.1.2-.2.1-.2-.5-.3-1.1-.6-1.7-.8.1-.2.1-.4.2-.7.6.1 1.2.1 1.8.1 0 .4 0 0-.3 0z" fill="#1d0200" stroke-width="none" opacity="1"></path><path id="SvgjsPath9809" d="M119.8 87.7c1.4 0 2.5 1.1 2.5 2.5s-1.1 2.5-2.5 2.5-2.5-1.1-2.5-2.5 1.1-2.5 2.5-2.5z" fill="#000000" stroke-width="none" opacity="1"></path><path id="SvgjsPath9810" d="M118.4 88c.5 0 1 .4 1 1s-.4 1-1 1-1-.4-1-1 .4-1 1-1zm3.1 3.6c.3 0 .5.2.5.5s-.2.5-.5.5-.5-.2-.5-.5.2-.5.5-.5z" fill="#ffffff" stroke-width="none" opacity="1"></path></g></g></g><g id="svga-group-eyesfront-right"><path id="SvgjsPath9863" d="M119.8 76.7c-7.8 0-14.1 6.1-14.1 13.6s6.3 13.6 14.1 13.6 14.1-6.1 14.1-13.6-6.3-13.6-14.1-13.6zm4.4 18.2c-4 1.6-13.7.1-13.7.1.1-1.8 1.2-5.3 4.3-7.9s15.7-3.4 15.1-.6c-.5 2.8-1.7 6.8-5.7 8.4z" fill="#f3d4cf" stroke-width="none" opacity="1"></path><path id="SvgjsPath9866" d="M130.2 86.6s0-1.2-.8-1.5c-.6-.2-4-.9-8.3-.7-2.4.1-4.2 1-5.5 1.9-.3.1-.5.3-.8.5-.8.7-1.6 1.5-2.2 2.3-1 1.4-1.7 2.9-2 4.6-.3 1.1-.3 1.9-.3 1.9s.1-.2.2-.6c2.1.4 4.1.6 6.2.8 1 .1 2.1.1 3.1 0 1.1 0 2.1-.1 3.1-.4 1-.2 2-.7 2.9-1.3.9-.6 1.6-1.4 2.2-2.3.6-.9 1-1.8 1.3-2.8.2-.5.3-1 .4-1.5l.2-.8v-.2c.2.1.3.1.3.1zm-.4.1-.2.8c-.1.5-.2 1-.4 1.5-.3 1-.7 1.9-1.3 2.8-1.1 1.7-3 2.9-5 3.3-.5.1-1 .2-1.5.2s-1 .1-1.6.1c-1 .1-2.1 0-3.1 0-2.1-.1-4.1-.2-6.2-.4.5-1.3 1.5-4.1 2.4-5.1 1.1-1.3 3.8-4.1 7.7-4.4 3.3-.2 7.8.8 9.1 1.1.1-.1.1 0 .1.1z" fill="#0d0706" stroke-width="none" opacity="1"></path></g></g></g><g id="svga-group-facehighlight-single"></g><g id="svga-group-eyebrows-left-move" transform="matrix(1,0,0,1,0,0)"><g id="svga-group-eyebrows-left-rotate" transform="matrix(1,1.7453292519943295e-9,-1.7453292519943295e-9,1,1.2995914744351467e-7,-1.3809918186780124e-7)"><g id="svga-group-eyebrows-left"><path id="SvgjsPath9906" d="M64.55 76.13s7.64-5.4 8.86-5.62 19.49 3.09 19.95 4.12c.46 1.03-.07 3.12-1.4 3.76-1.33.64-12.63-3.98-17.91-5.17-2-.45-9.5 2.91-9.5 2.91z" fill="#2a232b" stroke-width="none" opacity="1"></path><path id="SvgjsPath9907" d="M64.52 76.15c.01.02.08.01.08 0l.03-.01.06-.02.12-.05.23-.09.47-.18.94-.35c.63-.23 1.26-.45 1.89-.67 1.26-.44 2.54-.84 3.83-1.12.32-.07.64-.12.96-.16.32-.03.63-.04.89.02.64.16 1.28.34 1.92.54 1.27.39 2.55.8 3.81 1.23 2.54.85 5.07 1.71 7.65 2.49.64.19 1.29.39 1.95.55.66.16 1.32.33 2.04.38.19 0 .37.02.62-.06l.09-.03.06-.04.12-.07c.08-.04.15-.1.23-.16.29-.23.51-.51.69-.8.34-.59.52-1.24.53-1.9 0-.33-.03-.67-.16-.99-.02-.05-.02-.07-.06-.13-.04-.07-.09-.09-.13-.13-.08-.06-.16-.1-.24-.14-.16-.08-.32-.13-.48-.19-.65-.22-1.3-.39-1.95-.55-1.31-.33-2.62-.61-3.94-.9-2.63-.58-5.25-1.18-7.9-1.68-1.33-.24-2.66-.47-4.01-.63-.34-.04-.68-.08-1.03-.09-.09 0-.18-.01-.28-.01-.05 0-.1 0-.17.01-.06.01-.1.03-.15.04-.21.06-.36.14-.52.22-.62.32-1.18.67-1.74 1.02-1.12.71-2.19 1.48-3.27 2.24-.54.38-1.07.77-1.59 1.17l-.79.59-.39.3-.19.15-.1.08c-.05.01-.1.08-.12.12zm.92-.49-.34.16.32-.2.83-.53 1.67-1.06c1.11-.71 2.23-1.41 3.36-2.09.56-.34 1.14-.67 1.71-.95l.21-.1c.07-.04.13-.04.19-.07l.09-.03h.08c.07 0 .15 0 .23.01.32.02.65.06.98.1 1.32.18 2.65.38 3.98.59 1.33.2 2.66.4 3.99.62 1.33.22 2.65.45 3.97.72 1.32.27 2.63.57 3.92.92.65.17 1.29.36 1.9.6.15.06.3.12.44.19.07.04.13.07.18.11.02.02.05.04.04.04.01 0 .02.06.03.08.09.27.11.57.09.87a3.7 3.7 0 0 1-.57 1.69c-.17.25-.37.47-.6.64-.06.04-.12.09-.18.12l-.09.05-.05.03h-.03c-.07.03-.24.02-.38.01-.62-.06-1.27-.24-1.91-.42-.64-.18-1.28-.38-1.91-.58-2.54-.82-5.05-1.74-7.61-2.57-1.28-.41-2.56-.82-3.86-1.17-.65-.18-1.31-.35-1.98-.49-.4-.09-.77-.05-1.12 0-.35.05-.69.12-1.02.2-1.33.34-2.58.82-3.83 1.32-.62.25-1.23.52-1.84.79l-.89.4z" fill="#1b141c" stroke-width="none" opacity="1"></path></g></g></g><g id="svga-group-eyebrows-right-move" transform="matrix(1,0,0,1,0,0)"><g id="svga-group-eyebrows-right-rotate" transform="matrix(1,1.7453292519943295e-9,-1.7453292519943295e-9,1,1.365545756470965e-7,-2.1299837271726574e-7)"><g id="svga-group-eyebrows-right"><path id="SvgjsPath9908" d="M135.56 80.74s-6.82-5.75-7.95-6.03c-1.13-.28-18.27 2.16-18.75 3.17-.48 1.01-.1 3.12 1.11 3.82s11.94-3.37 16.91-4.31c1.88-.36 8.68 3.35 8.68 3.35z" fill="#2a232b" stroke-width="none" opacity="1"></path><path id="SvgjsPath9909" d="m135.5 80.64-.09-.08-.17-.16-.35-.32-.7-.63c-.47-.42-.94-.84-1.42-1.24-.96-.81-1.92-1.62-2.93-2.39-.5-.38-1.01-.76-1.56-1.1-.14-.08-.28-.17-.47-.24-.05-.02-.09-.04-.14-.05-.06-.01-.12-.02-.16-.02-.09-.01-.18-.01-.26-.01-.33 0-.64.02-.96.05-1.26.1-2.51.26-3.76.44-2.49.37-4.96.85-7.43 1.3-1.24.23-2.47.45-3.7.72-.61.14-1.23.28-1.84.46-.15.05-.31.1-.46.17-.08.03-.15.07-.23.13-.04.04-.08.06-.13.12-.04.06-.04.09-.06.13-.13.32-.18.65-.2.98-.02.66.12 1.32.4 1.93.15.3.34.59.6.83.06.06.13.12.2.17l.11.08.06.04.08.04c.23.09.39.08.57.09.68-.02 1.29-.15 1.92-.28.62-.13 1.23-.3 1.84-.46 2.43-.66 4.83-1.4 7.24-2.13 1.2-.37 2.4-.72 3.6-1.05.6-.16 1.21-.32 1.81-.44.24-.06.54-.03.83.02.29.05.59.12.89.21 1.18.35 2.35.81 3.5 1.3.57.25 1.15.5 1.72.76l.85.4.43.2.21.1.11.05.05.03.03.01c-.01 0 .06.02.07 0a.339.339 0 0 0-.1-.16zm-1.56-.86c-.55-.3-1.11-.6-1.67-.88-1.13-.55-2.27-1.1-3.49-1.5-.31-.1-.62-.18-.94-.25-.32-.06-.67-.11-1.04-.05-.63.11-1.25.25-1.86.39-1.23.29-2.44.64-3.65.99-2.41.71-4.8 1.5-7.2 2.21-.6.17-1.2.34-1.81.49-.6.15-1.21.29-1.79.33-.13.01-.29 0-.36-.03l-.03-.01-.04-.03-.08-.06a.653.653 0 0 1-.16-.13c-.21-.18-.39-.41-.53-.67a3.91 3.91 0 0 1-.44-1.71c0-.3.03-.6.13-.86.01-.03.03-.08.03-.08l.04-.04c.05-.04.11-.07.18-.1.13-.07.28-.12.42-.17.58-.21 1.19-.36 1.8-.5 1.22-.29 2.45-.53 3.69-.73 1.24-.21 2.48-.37 3.73-.53 1.25-.16 2.49-.3 3.74-.43 1.25-.14 2.49-.28 3.73-.4.31-.03.62-.05.92-.06h.21c.03 0 .06.01.07.01.02.01.05.02.08.03.06.03.11.04.17.08l.19.11c.52.31 1.04.66 1.54 1.03 1.01.73 2.02 1.48 3.02 2.24l1.5 1.14.75.57.28.22-.31-.18-.82-.44z" fill="#1b141c" stroke-width="none" opacity="1"></path></g></g></g><g id="svga-group-nose-single-move" transform="matrix(1,0,0,1,0,0)"><g id="svga-group-nose-single" transform="matrix(0.8999996000000001,0,0,0.8999996000000001,10.002412751190178,10.712505847288497)"><path id="SvgjsPath9893" d="M97.86 101.45s-4.22.78-5.78 2.4-2.08 5 .13 6.5c2.21 1.49 2.04.6 4.03-.39.26-.13.65-.71 1.56.71.91 1.43 1.95 2.27 2.73 1.62.78-.65 1.62-2.73 2.34-2.79.71-.06 2.21 1.69 2.79 1.88.58.19 2.92-.91 3.38-2.4s.39-4.03-1.95-6.04-7.35-1.49-9.23-1.49z" fill="#fbe5e2" stroke-width="none" opacity="1"></path><path id="SvgjsPath9894" d="M97.86 101.45c-1.05.22-2.09.5-3.09.88-.5.19-.99.41-1.46.67-.46.27-.91.57-1.26.97-.71.8-1.09 1.85-1.18 2.89-.1 1.04.18 2.13.89 2.86.17.19.38.33.58.49.22.14.45.28.68.4.23.11.46.23.69.27.23.05.43.03.63-.07.41-.21.85-.59 1.33-.86l.36-.21c.03-.01.07-.04.08-.05l.06-.04c.06-.04.12-.09.21-.13.16-.1.43-.12.62-.05.2.06.33.17.45.27.23.21.41.44.57.68.16.23.29.43.45.64.31.4.67.78 1.06.99.19.11.38.14.53.1.08-.01.15-.06.22-.11.08-.06.16-.14.23-.24.31-.37.59-.84.88-1.29.15-.23.3-.46.48-.68.09-.11.19-.23.3-.34.06-.06.13-.11.19-.16.08-.05.16-.1.27-.14.23-.09.47-.02.63.03.08.03.15.07.23.1l.2.12c.25.16.47.34.68.51.42.34.81.74 1.2 1.02.09.06.19.12.21.11.02.01.08 0 .13 0l.16-.03c.23-.05.46-.15.69-.25.45-.22.9-.49 1.26-.83.37-.34.67-.73.8-1.2.29-.98.26-2.06-.04-3.05-.3-1-.92-1.89-1.69-2.61-.77-.72-1.8-1.12-2.83-1.36-1.05-.23-2.12-.32-3.19-.35-1.06-.02-2.14.04-3.21.05zm0 0c2.14-.06 4.3-.2 6.43.2 1.05.22 2.12.56 2.96 1.29.83.71 1.52 1.61 1.88 2.66.37 1.04.45 2.2.18 3.3-.06.27-.19.57-.34.81-.16.25-.34.47-.55.67-.41.4-.88.73-1.38.98-.26.12-.52.24-.81.31-.15.03-.3.07-.51.05-.25-.02-.38-.14-.52-.21-.49-.34-.87-.7-1.28-1.03-.2-.16-.41-.32-.61-.45l-.15-.09-.14-.06c-.09-.02-.14-.04-.16-.02-.02 0-.05.03-.09.05-.04.03-.07.06-.11.1-.08.08-.16.17-.23.26-.15.2-.3.42-.44.64-.29.44-.57.91-.95 1.36-.1.11-.2.22-.34.33-.14.1-.31.2-.49.24-.38.09-.75-.02-1.02-.17-.56-.31-.92-.76-1.26-1.21-.17-.22-.32-.47-.46-.69-.13-.22-.29-.42-.45-.57a.78.78 0 0 0-.22-.15c-.06-.02-.09-.03-.16.01a.75.75 0 0 0-.14.08c-.03.02-.06.04-.11.07l-.1.05c-.11.06-.23.11-.35.18-.23.12-.45.26-.68.4-.23.14-.45.3-.74.42-.28.13-.64.15-.94.07-.3-.07-.55-.22-.79-.35-.24-.14-.47-.29-.69-.45-.22-.18-.45-.35-.63-.57-.76-.86-1-2.05-.85-3.13.14-1.08.59-2.13 1.33-2.93.77-.79 1.79-1.22 2.79-1.59 1.02-.37 2.07-.65 3.12-.86z" fill="#c5796d" stroke-width="none" opacity="1"></path></g></g><g id="svga-group-hair-front" transform="matrix(1.0400004000000003,0,0,1.0002004000000002,-3.976039363267546,-0.018885192935968576)"><path id="SvgjsPath9968" d="M98.8 29.6s-6.6-4.7-8.6-4.8c0 0-2.9.5-6.9 3.5-3.8 3.1-18.6 13.7-20.4 15.8S60 48.7 60 48.7s-4.1 10.7-5.5 16.2l-3.9 17.5 1 19.6 2.4 31.7 3.1 16.5 1.5 6.8-.1-8 6.1 10.8 7 1.8-1.4-9.1 6.9 9.7-4.4-16.2-4.9-19.7-1-26.7s-.1-15.6.3-18.6.8-5.8.8-5.8l2.9-8.9s2.8-7.7 3.9-10 3.5-8.1 4.4-9.4c1-1.3 2.3-2.2 2.3-2.2s2.9.4 4.1.8 14.7 4.6 14.7 4.6l9-4.6s3.3-1.9 4.8-1.8c1.5.1 4.6 1.4 4.6 1.4s5.5 4.1 6.9 6.2 6.9 10.7 6.9 10.7 1.8 14.7 1.9 18.3c.1 3.6.9 10.1.9 10.1s1.4 11.6 1.4 13.7.3 7.9.3 7.9l-.3 8.5s-1.8 15.5-1.9 16.4c-.1.9-2.2 17.3-2.2 17.3l-.7 5.9 3.7-2.3 1-6.1 2 4.3 2.1 3.6.4-12 7.5 10.8-1.7-18.1-2.4-23.3.3-26.4.9-20.9.1-9.1-5.2-10.2s-5.1-8.4-8.2-10.8c-3.1-2.3-10-8.3-15-10.3s-9.9-3.1-9.9-3.1l-8.6 3.4z" fill="#2a232b" stroke-width="none" opacity="1"></path><path id="SvgjsPath9969" d="M136.9 123.2c.2-2.1.4-4.1.6-6.2.2-2.1.4-4.1.4-6.3-.6-8.3-1.4-16.5-2.1-24.7-.8-8.2-1.5-16.4-2.3-24.7v-.2l-.1-.1c-.8-1.8-1.7-3.2-2.7-4.7-1-1.5-2-2.9-3.1-4.3-2.2-2.7-4.5-5.5-7.6-7.6-1.5-1-3.4-1.8-5.3-1.8-1 0-2 .2-2.9.6-.9.4-1.6.8-2.4 1.2l-9.1 4.7c-2.7-.9-5.4-1.7-8.1-2.5-2.8-.8-5.7-1.7-8.6-2.3-.4-.1-.7-.1-1.1-.2l-.6-.1c-.2 0-.5 0-.7.1-.9.4-1.3 1-1.8 1.6-.9 1.2-1.6 2.5-2.2 3.9-1.3 2.7-2.4 5.4-3.5 8.1-2.1 5.5-4.1 11-5.9 16.6-.2.7-.3 1.5-.5 2.2l-.3 2.2c-.2 1.5-.3 2.9-.4 4.4-.2 2.9-.3 5.9-.4 8.8-.1 5.9-.2 11.8 0 17.6.1 2.9.2 5.9.3 8.8l.2 4.4c0 .7.1 1.5.2 2.2.1.8.2 1.5.3 2.3 1.2 5.8 2.8 11.5 4.3 17.2 1.3 4.7 2.7 9.4 4 14.1l-5.1-6.6-.9-1.1.3 1.4c.6 3.1 1.2 6.3 1.9 9.4h.2l-1.2-8.1c1.9 2.7 3.8 5.4 5.8 8.1l1.7 2.4-.8-2.9-4.5-17c-1.5-5.7-3-11.4-4.1-17.1-.2-.7-.2-1.4-.3-2.1l-.1-2.2-.2-4.4c-.1-2.9-.3-5.9-.3-8.8-.2-5.9-.4-11.7-.4-17.6 0-2.9 0-5.9.1-8.8.1-2.9.2-5.9 1-8.6 1.4-5.5 3.3-11 5.5-16.5 1.1-2.7 2.3-5.4 3.6-8 .7-1.3 1.4-2.6 2.2-3.7.4-.5.9-1.1 1.4-1.3h.4l.5.1c.3.1.7.2 1.1.2 5.6 1.4 11.2 3.4 16.7 5.3l.3.1.3-.1L110 46c.8-.4 1.6-.8 2.3-1.1.7-.3 1.5-.4 2.2-.4 1.5 0 3 .7 4.4 1.6 2.7 1.8 5 4.5 7.1 7.2 1.1 1.4 2.1 2.8 3 4.2.9 1.4 1.8 2.9 2.4 4.3.7 8.2 1.5 16.3 2.3 24.5l2.4 24.6c.1 1.9-.1 4-.2 6.1-.2 2.1-.3 4.1-.5 6.2l-1.2 12.3-2.6 24.6h.2c1.3-8.1 2.6-16.3 3.6-24.5.5-4.2 1-8.3 1.5-12.4zm2.9 7.4c.2-1.5.4-3 .4-4.7l-.1-1.2v-3.4c.1-12.2.5-24.5.4-36.7 0-1.5 0-3.1-.1-4.6 0-.8-.1-1.6-.1-2.3 0-.4-.1-.8-.1-1.2l-.1-.6-.1-.6c-.5-3-1-6-1.6-9-.6-3-1.2-6-2.1-9-.4-1.5-.8-3-1.4-4.5-.3-.7-.6-1.5-.9-2.2-.4-.7-.8-1.5-1.6-2.2-2.5-1.9-5-3.6-7.6-5.3-2.6-1.7-5.2-3.3-8-4.7-.7-.3-1.4-.7-2.2-.9-.4-.1-.8-.2-1.5-.2-.5.1-.9.3-1.2.4-1.5.6-2.8 1.3-4.2 2.1-2.6 1.4-5.2 2.9-7.8 4.4-5.2-2-10.4-4-15.8-5.7-1.4-.4-2.7-.9-4.1-1.2-.7-.2-1.4-.3-2.1-.5H77c-.1 0-.3 0-.4.1-.4.2-.7.5-.9.8-.9 1.2-1.5 2.5-2.1 3.8-.6 1.3-1.2 2.6-1.7 3.9-2.2 5.2-4.1 10.6-6.1 15.9-1.9 5.3-3.8 10.7-5.6 16.1-.9 2.7-1.8 5.4-2.6 8.1-.4 1.4-.8 2.7-1.2 4.1-.2.7-.4 1.4-.5 2.1 0 .2-.1.4-.1.6V94c.1 5.8.5 11.4.9 17.1.4 5.7.9 11.3 1.4 17l1.6 17v.1c1.6 4.9 3.1 9.8 4.7 14.7l.2-.1c-1.3-5-2.6-9.9-3.9-14.9L58.4 111l-.5-8.5c-.1-2.8-.3-5.7-.4-8.5v-1.5c0-.2 0-.3.1-.5.1-.7.3-1.3.5-2 .3-1.4.7-2.7 1.1-4.1.8-2.7 1.5-5.5 2.3-8.2 3.2-10.9 6.6-21.7 10.9-32.2.5-1.3 1.1-2.6 1.7-3.9.6-1.3 1.3-2.5 2.1-3.6.2-.3.4-.5.7-.6h.8c.7.1 1.4.3 2 .5 1.4.4 2.7.8 4 1.3 5.3 1.9 10.6 4 15.8 6.2l.2.1.3-.1c2.7-1.5 5.4-2.9 8.1-4.3 1.4-.7 2.7-1.4 4.1-1.9.3-.1.7-.2.9-.3.1 0 .5 0 .8.2.7.2 1.3.5 2 .9 2.7 1.4 5.2 3.1 7.7 4.8 2.5 1.7 5 3.5 7.4 5.3.4.3.7.9 1 1.5.3.6.6 1.3.8 2 .5 1.4.9 2.8 1.3 4.3.8 2.9 1.4 5.9 1.9 8.9l1.6 9 .1.6.1.5c0 .3.1.7.1 1.1 0 .8.1 1.5.1 2.3 0 1.5.1 3 .1 4.6 0 12.2-.1 24.5.1 36.7 0 .8 0 1.5.1 2.3 0 .4 0 .8.1 1.2l.1.6v.5c.1 1.4-.1 3-.2 4.5-.3 3-.6 6.1-1 9.1-.7 6.1-1.5 12.1-2.3 18.2h.2c1.1-6 2.1-12.1 3.1-18.1.7-3.2 1.1-6.2 1.5-9.3zm9.3 30.1-.2-2.4-2.1-24.3-1.1-12.1c-.4-4-.5-8-.5-12 0-8.1.2-16.2.5-24.3l.9-24.3v-.2l-.1-.2c-.8-2.3-1.7-4.3-2.7-6.4-1-2.1-2.2-4-3.4-6-2.5-3.9-5.5-7.4-8.8-10.6-3.3-3.2-7.1-5.8-11.2-8-2-1.1-4.2-1.9-6.3-2.7-2.2-.7-4.4-1.4-6.7-1.7h-.1l-.1.1-8.2 3.6c-1.3-1-2.6-1.9-3.9-2.7-.7-.4-1.5-.9-2.2-1.2-.8-.3-1.6-.7-2.5-.8-.4 0-.9-.1-1.4.1-.4.1-.8.3-1.2.5-.8.4-1.5.8-2.2 1.3-1.4.9-2.8 1.9-4.1 2.9-5.4 4-10.7 8-15.9 12.2-1.3 1.1-2.6 2.1-3.9 3.2-1.2 1.4-1.8 2.9-2.5 4.5-1.3 3.1-2.4 6.2-3.5 9.4-1 3.2-2 6.4-2.9 9.6-.9 3.2-1.7 6.5-2.4 9.8-.2.8-.3 1.7-.5 2.5-.1.4-.1.8-.2 1.3v1.3c0 1.7.1 3.4.1 5 .1 3.3.3 6.7.5 10 .4 6.7.9 13.3 1.5 20 .3 3.3.5 6.7.9 10 .2 1.7.3 3.3.5 5 .2 1.7.5 3.4.8 5 1.3 6.6 2.8 13.1 4.3 19.5l.5-.1-.5-7.8h-.2l.1 4.7-1.3-6.8c-.6-3.3-1.3-6.6-1.8-9.8-.3-1.6-.6-3.3-.7-4.9-.2-1.6-.3-3.3-.4-5l-.7-10c-.5-6.7-.9-13.3-1.2-20l-.5-10c-.1-1.7-.2-3.3-.2-5v-1.2c0-.4.1-.8.1-1.2.1-.8.3-1.6.4-2.4 1.3-6.5 2.9-13 4.8-19.3 1-3.2 2-6.3 3.2-9.4.6-1.5 1.3-3.1 2.3-4.3.5-.5 1.2-1.1 1.8-1.6l1.9-1.6c5.2-4.2 10.3-8.4 15.8-12.3 1.3-1 2.7-1.9 4.1-2.8.7-.4 1.4-.9 2.1-1.2.4-.2.7-.4 1.1-.5.3-.1.7-.1 1.1 0 1.5.2 3 1.1 4.4 1.9 1.4.9 2.7 1.9 4 2.9l.2.2.2-.1 8.2-3.4c2.1.4 4.2 1 6.3 1.8 2.1.8 4.1 1.7 6.1 2.8 3.9 2.2 7.6 4.8 10.7 7.9 3.2 3.1 6 6.6 8.4 10.4 1.2 1.9 2.3 3.8 3.3 5.8 1 1.9 1.8 4 2.5 6-.4 8-.8 16.1-1.1 24.1-.3 8.1-.5 16.2-.4 24.4 0 2 0 4.1.1 6.1s.3 4.2.5 6.1l1.3 12.1 2.4 21.9-6.4-9-.8-1.1v12.8l-1.9-3.2-.2.1 2.1 3.8.3.6v-.7l.4-10.8 6.7 10.1 1.7 2.1z" fill="#1b141c" stroke-width="none" opacity="1"></path></g><g id="svga-group-glasses-single-move" transform="matrix(1,0,0,1,0,0)"><g id="svga-group-glasses-single" transform="matrix(1.1500006000000005,0,0,1.1500006000000005,-14.872559146675925,-14.4659844155251)"><path id="SvgjsPath9941" d="M86.1 87.9c4.7 0 8.6 3.9 8.6 8.6s-3.9 8.6-8.6 8.6-8.6-3.9-8.6-8.6 3.9-8.6 8.6-8.6z" fill="#ffffff" stroke-width="none" opacity="0.53"></path><path id="SvgjsPath9942" d="M112.1 87.9c4.7 0 8.6 3.9 8.6 8.6s-3.9 8.6-8.6 8.6-8.6-3.9-8.6-8.6 3.9-8.6 8.6-8.6z" fill="#ffffff" stroke-width="none" opacity="0.53"></path><path id="SvgjsPath9943" d="M86.1 87.4c-3.8 0-7.1 2.3-8.4 5.7-.5 0-1.6-.1-2.3.1l.1 2.2 1.7-.1c-.1.4-.1.7-.1 1.1 0 5 4.1 9.1 9.1 9.1s9.1-4.1 9.1-9.1-4.2-9-9.2-9zm0 17.3c-4.5 0-8.2-3.7-8.2-8.2s3.7-8.2 8.2-8.2 8.2 3.7 8.2 8.2c0 4.5-3.7 8.2-8.2 8.2zm17-8.2c0 5 4.1 9.1 9.1 9.1s9.1-4.1 9.1-9.1c0-.4 0-.8-.1-1.1l1.7.1.1-2.2c-.7-.1-1.8-.1-2.3-.1-1.3-3.3-4.6-5.7-8.4-5.7-5.2-.1-9.2 4-9.2 9zm.8 0c0-4.5 3.7-8.2 8.2-8.2s8.2 3.7 8.2 8.2-3.7 8.2-8.2 8.2-8.2-3.7-8.2-8.2z" fill="#26120b" stroke-width="none" opacity="1"></path><path id="SvgjsPath9944" d="M86.1 87.5c-1.8 0-3.6.6-5 1.6s-2.6 2.5-3.2 4.1v.1h-.1c-.8 0-1.5 0-2.3.1l.2-.2.1 2.2-.2-.2h1.9v.2c-.2 1.8 0 3.6.9 5.2.4.8.9 1.6 1.6 2.2s1.4 1.2 2.2 1.6c1.6.8 3.4 1.2 5.2.9 1.8-.2 3.5-1 4.8-2.2.7-.6 1.2-1.3 1.7-2.1s.8-1.6 1-2.4c.4-1.7.3-3.6-.3-5.3-.6-1.7-1.7-3.2-3.2-4.2-.7-.5-1.6-.9-2.4-1.2-1.1-.3-2-.4-2.9-.4zm0-.1c.9 0 1.8.1 2.7.4.9.3 1.7.7 2.5 1.2 1.5 1 2.8 2.5 3.4 4.2.4.9.6 1.8.6 2.7.1.9 0 1.9-.2 2.8s-.6 1.8-1.1 2.6-1.1 1.5-1.8 2.1c-1.4 1.2-3.2 2-5 2.2s-3.7-.2-5.3-1.1c-.8-.4-1.5-1-2.2-1.7-.6-.7-1.2-1.4-1.6-2.2-.8-1.6-1.2-3.5-1-5.3l.2.2-1.7.1h-.2v-.2l-.1-2.2V93h.2c.8-.1 1.6-.1 2.3-.1l-.3.1c.7-1.7 1.9-3.1 3.4-4.1 1.6-1 3.4-1.5 5.2-1.5zm0 17.3c-2.2 0-4.3-.8-5.9-2.3s-2.5-3.7-2.5-5.9 1-4.3 2.5-5.9c1.6-1.5 3.7-2.5 5.9-2.5s4.4.8 6 2.4c1.6 1.5 2.5 3.7 2.5 6 0 2.2-.9 4.4-2.5 5.9-1.7 1.5-3.8 2.4-6 2.3zm0 0c2.2 0 4.3-.9 5.7-2.5 1.5-1.5 2.3-3.6 2.3-5.7s-.8-4.2-2.3-5.7-3.6-2.4-5.7-2.4-4.3.8-5.8 2.4c-1.5 1.5-2.3 3.7-2.3 5.8 0 2.1.9 4.2 2.3 5.7 1.5 1.5 3.6 2.4 5.8 2.4zm17-8.2c0 2.5 1.1 4.9 2.9 6.5s4.2 2.5 6.7 2.4c2.4-.1 4.8-1.2 6.3-3.1 1.6-1.9 2.3-4.4 2-6.8v-.1h1.8l-.1.1v-2.2l.1.2c-.7-.1-1.5-.1-2.3 0h-.1l-.1-.1c-.8-1.9-2.2-3.5-4-4.4-1.8-1-3.9-1.3-5.9-.9s-3.9 1.4-5.2 3c-1.3 1.2-2.1 3.3-2.1 5.4zm0 0c0-2.1.7-4.2 2-5.8 1.3-1.6 3.2-2.8 5.3-3.3 2.1-.4 4.3-.1 6.2.9 1.9 1 3.3 2.7 4.1 4.7l-.2-.1c.8 0 1.6 0 2.3.1h.1v.1l-.1 2.2v.1h-.1l-1.7-.1.1-.1c.3 2.5-.5 5-2.1 6.9s-3.9 3.2-6.4 3.4c-2.5.2-5.1-.8-6.8-2.5-1.7-1.6-2.8-4.1-2.7-6.5zm.8 0c0-2.2.8-4.3 2.3-5.9s3.7-2.5 5.9-2.5 4.3 1 5.9 2.5c1.5 1.6 2.5 3.7 2.5 5.9s-.8 4.4-2.4 6c-1.5 1.6-3.7 2.5-6 2.5-2.2 0-4.4-.9-5.9-2.5-1.5-1.7-2.4-3.8-2.3-6zm0 0c0 2.2.9 4.3 2.5 5.7 1.5 1.5 3.6 2.3 5.7 2.3s4.2-.8 5.7-2.3 2.4-3.6 2.4-5.7-.8-4.3-2.4-5.8c-1.5-1.5-3.7-2.3-5.8-2.3-2.1 0-4.2.9-5.7 2.3-1.5 1.5-2.4 3.6-2.4 5.8z" fill="#070201" stroke-width="none" opacity="1"></path><path id="SvgjsPath9945" d="M93.8 95.6h10.6v1.1H93.8v-1.1z" fill="#070201" stroke-width="none" opacity="1"></path></g></g></g></g></g><rect id="svga-credit-rect" width="200" height="15" x="0" y="185" fill="#ecf0f1" opacity="0.5" style="display: none;"></rect><text id="svga-credit-text" font-family="Avenir Next, Roboto, Helvetica, Arial, sans-serif" font-size="10px" text-anchor="start" font-weight="400" size="10px" anchor="start" weight="400" fill="#333333" x="33.40447998046875" y="182.60824704170227" style="display: none;"><tspan id="SvgjsTspan9707" dy="13" x="33.40447998046875">Created on AvatarMaker.com</tspan></text></g><defs id="SvgjsDefs9659"></defs></svg>